<?xml version="1.0" encoding="UTF-8" standalone="no"?>
<!-- Created with Inkscape (http://www.inkscape.org/) -->

<svg
   width="297mm"
   height="210mm"
   viewBox="0 0 297 210"
   version="1.1"
   id="svg1"
   xml:space="preserve"
   inkscape:version="1.4.2 (ebf0e940d0, 2025-05-08)"
   sodipodi:docname="sunpy_ecosystem.svg"
   xmlns:inkscape="http://www.inkscape.org/namespaces/inkscape"
   xmlns:sodipodi="http://sodipodi.sourceforge.net/DTD/sodipodi-0.dtd"
   xmlns:xlink="http://www.w3.org/1999/xlink"
   xmlns="http://www.w3.org/2000/svg"
   xmlns:svg="http://www.w3.org/2000/svg"><sodipodi:namedview
     id="namedview1"
     pagecolor="#ffffff"
     bordercolor="#000000"
     borderopacity="0.25"
     inkscape:showpageshadow="2"
     inkscape:pageopacity="0.0"
     inkscape:pagecheckerboard="0"
     inkscape:deskcolor="#d1d1d1"
     inkscape:document-units="mm"
     inkscape:zoom="1"
     inkscape:cx="555.5"
     inkscape:cy="341"
     inkscape:window-width="1788"
     inkscape:window-height="1157"
     inkscape:window-x="0"
     inkscape:window-y="0"
     inkscape:window-maximized="0"
     inkscape:current-layer="layer1"><inkscape:page
       x="0"
       y="0"
       width="297"
       height="210"
       id="page2"
       margin="0"
       bleed="0" /></sodipodi:namedview><defs
     id="defs1"><linearGradient
       id="linearGradient2795"><stop
         style="stop-color:#b8b8b8;stop-opacity:0.49803922;"
         offset="0"
         id="stop2797" /><stop
         style="stop-color:#7f7f7f;stop-opacity:0;"
         offset="1"
         id="stop2799" /></linearGradient><linearGradient
       id="linearGradient4671"><stop
         style="stop-color:#ffd43b;stop-opacity:1;"
         offset="0"
         id="stop4673" /><stop
         style="stop-color:#ffe873;stop-opacity:1"
         offset="1"
         id="stop4675" /></linearGradient><linearGradient
       id="linearGradient4689"><stop
         style="stop-color:#5a9fd4;stop-opacity:1;"
         offset="0"
         id="stop4691" /><stop
         style="stop-color:#306998;stop-opacity:1;"
         offset="1"
         id="stop4693" /></linearGradient><linearGradient
       inkscape:collect="always"
       xlink:href="#linearGradient4671"
       id="linearGradient1475"
       gradientUnits="userSpaceOnUse"
       gradientTransform="matrix(0.562541,0,0,0.567972,-9.399749,-5.305317)"
       x1="150.96111"
       y1="192.35176"
       x2="112.03144"
       y2="137.27299" /><linearGradient
       inkscape:collect="always"
       xlink:href="#linearGradient4689"
       id="linearGradient1478"
       gradientUnits="userSpaceOnUse"
       gradientTransform="matrix(0.562541,0,0,0.567972,-9.399749,-5.305317)"
       x1="26.648937"
       y1="20.603781"
       x2="135.66525"
       y2="114.39767" /><radialGradient
       inkscape:collect="always"
       xlink:href="#linearGradient2795"
       id="radialGradient1480"
       gradientUnits="userSpaceOnUse"
       gradientTransform="matrix(2.382716e-8,-0.296405,1.43676,4.683673e-7,-128.544,150.5202)"
       cx="61.518883"
       cy="132.28575"
       fx="61.518883"
       fy="132.28575"
       r="29.036913" /><style
       id="style1">.cls-1{fill:#4D77CF;}.cls-2{fill:#4DABCF;}</style><linearGradient
       id="linearGradient3767"><stop
         id="stop3800"
         offset="0"
         style="stop-color:#ffa900;stop-opacity:1;" /><stop
         id="stop3775"
         offset="1"
         style="stop-color:#fd0000;stop-opacity:1;" /></linearGradient><linearGradient
       xlink:href="#linearGradient3767"
       id="linearGradient3798"
       x1="195.5511"
       y1="163.12114"
       x2="83.651718"
       y2="298.258"
       gradientUnits="userSpaceOnUse"
       spreadMethod="repeat" /><style
       type="text/css"
       id="style1-2">*{stroke-linejoin: round; stroke-linecap: butt}</style><clipPath
       id="pdafd30e422"><path
         d="m 76.824,39.6 c 0,-4.888211 -0.962871,-9.72889 -2.833508,-14.245008 C 72.119854,20.838874 69.37783,16.735144 65.921343,13.278657 62.464856,9.82217 58.361126,7.080146 53.845008,5.209508 49.32889,3.338871 44.488211,2.376 39.6,2.376 34.711789,2.376 29.87111,3.338871 25.354992,5.209508 20.838874,7.080146 16.735144,9.82217 13.278657,13.278657 9.82217,16.735144 7.080146,20.838874 5.209508,25.354992 3.338871,29.87111 2.376,34.711789 2.376,39.6 c 0,4.888211 0.962871,9.72889 2.833508,14.245008 1.870638,4.516118 4.612662,8.619848 8.069149,12.076335 3.456487,3.456487 7.560217,6.198511 12.076335,8.069149 C 29.87111,75.861129 34.711789,76.824 39.6,76.824 c 4.888211,0 9.72889,-0.962871 14.245008,-2.833508 4.516118,-1.870638 8.619848,-4.612662 12.076335,-8.069149 3.456487,-3.456487 6.198511,-7.560217 8.069149,-12.076335 C 75.861129,49.32889 76.824,44.488211 76.824,39.6 m -37.224,0 c 0,0 0,0 0,0 0,0 0,0 0,0 0,0 0,0 0,0 0,0 0,0 0,0 0,0 0,0 0,0 0,0 0,0 0,0 0,0 0,0 0,0 0,0 0,0 0,0 0,0 0,0 0,0 0,0 0,0 0,0 0,0 0,0 0,0 0,0 0,0 0,0 0,0 0,0 0,0 0,0 0,0 0,0 z"
         id="path24" /></clipPath><clipPath
       clipPathUnits="userSpaceOnUse"
       id="clipPath23113"><circle
         style="fill:#0054a6;fill-opacity:1;stroke-width:2.963;stroke-miterlimit:4;stroke-dasharray:none"
         id="circle23115"
         cx="280.01196"
         cy="279.8804"
         r="252.57939" /></clipPath><style
       id="style1-3">.cls-1{fill:#130754;}.cls-2{fill:#ffca00;}.cls-3{fill:#e70488;}</style><style
       id="style1-32">.cls-1{fill:#4D77CF;}.cls-2{fill:#4DABCF;}</style><linearGradient
       inkscape:collect="always"
       id="linearGradient26949"><stop
         style="stop-color:#ffffff;stop-opacity:1;"
         offset="0"
         id="stop26945" /><stop
         style="stop-color:#99b5c9;stop-opacity:1"
         offset="1"
         id="stop26947" /></linearGradient><linearGradient
       inkscape:collect="always"
       xlink:href="#linearGradient26949"
       id="linearGradient26951"
       x1="80.53817"
       y1="96.494545"
       x2="60"
       y2="60"
       gradientUnits="userSpaceOnUse"
       gradientTransform="matrix(0.26455924,0,0,0.26458333,0.00267961,0)" /><style
       type="text/css"
       id="style1-6">@import url(http://fonts.googleapis.com/css?family=Source+Sans+Pro);</style><clipPath
       clipPathUnits="userSpaceOnUse"
       id="clipPath3655"><path
         d="m 330.321,694.55 -20.026,-8.899 c -14.884,-7.471 -57.746,-40.923 -57.746,-40.923 v 0 c -6.827,-6.599 -27.142,-30.204 -40.38,-56.065 v 0 c -12.238,-23.909 -17.707,-50.179 -17.877,-56.446 v 0 c 0,0 2.497,-28.617 3.608,-33.285 v 0 c 1.033,-2.698 8.261,-24.785 12.712,-32.629 v 0 l 9.695,-14.493 c 6.042,-7.741 13.336,-15.155 22.086,-22.176 v 0 l 10.978,-8.085 c 4.876,-3.286 33.696,-17.794 40.163,-20.204 v 0 l 19.885,-6.175 c 26.271,-6.452 50.626,-5.726 73.738,-0.343 v 0 c 2.696,1.034 5.478,1.779 8.33,2.231 v 0 c 4.978,1.876 34.74,12.271 34.74,12.271 v 0 c 13.653,5.392 26.884,12.373 38.735,24.488 v 0 c 1.105,1.904 2.205,3.815 3.309,5.717 v 0 c 11.052,17.681 -12.633,31.366 -30.084,33.237 v 0 c -14.86,1.588 -26.298,-5.901 -39.825,-11.022 v 0 c -21.279,-8.047 -43.623,-11.293 -68.985,-7.661 v 0 c -37.012,5.299 -71.602,28.766 -79.867,60.832 v 0 c -1.029,2.7 -1.774,5.475 -2.228,8.332 v 0 c -2.904,15.962 -2.539,32.795 7.252,52.149 v 0 c 1.643,4.528 5.794,11.712 8.902,15.395 v 0 c 20.137,29.637 47.818,42.538 74.488,49.673 v 0 c 26.754,7.155 57.417,8.381 89.894,-7.946 v 0 c 1.334,0.573 3.446,-1.773 5.093,-2.355 v 0 c 0.877,-0.508 1.762,-1.014 2.643,-1.526 v 0 c 1.323,-1.135 4.411,-1.797 4.582,-3.237 v 0 c 8.898,-3.947 8.826,-10.285 11.326,-15.937 v 0 c 0.911,-2.239 1.534,-4.549 1.859,-6.942 v 0 c 6.852,-20.762 -5.473,-46.014 -23.749,-61.395 v 0 c -17.929,-15.068 -39.281,-28.695 -61.107,-20.435 v 0 c -1.466,-0.127 -5.534,2.228 -6.159,3.562 v 0 c -14.439,11.013 -19.425,24.557 -15.995,40.352 v 0 c 12.82,-4.131 14.526,-21.061 28.046,-25.602 v 0 c 10.897,-3.657 20.788,3.44 28.871,14.419 v 0 c 1.106,1.905 2.205,3.813 3.306,5.719 v 0 c 11.43,22.272 2.438,33.069 -15.369,47.522 v 0 c -2.784,1.61 -5.578,3.223 -8.36,4.831 v 0 c -35.844,12.574 -62.911,14.821 -85.157,-23.455 v 0 c -1.946,-3.372 -3.9,-6.746 -5.849,-10.12 v 0 c -16.231,-24.19 -4.586,-42.119 7.589,-58.962 v 0 c 7.605,-10.532 16.822,-23.861 30.408,-31.661 v 0 c 27.876,-15.994 58.681,-8.559 80.473,-1.909 v 0 c 14.035,4.278 28.607,10.192 41.889,18.905 v 0 l 13.121,10.013 c 4.797,4.247 9.307,8.971 13.393,14.292 v 0 c 5.503,7.165 9.705,14.658 12.874,22.288 v 0 l 5.011,15.599 c 3.572,15.334 3.471,30.764 1.086,44.936 v 0 l -5.293,17.833 c -6.984,16.497 -21.073,31.099 -41.689,43.95 v 0 l -13.047,8.229 c -2.129,1.23 -4.26,2.461 -6.386,3.69 v 0 c -2.228,-0.083 -5.221,2.822 -7.734,3.886 v 0 c -10.241,5.384 -19.963,9.08 -29.302,11.375 v 0 l -15.816,2.634 c -2.865,0.246 -5.699,0.365 -8.505,0.365 v 0 c -15.064,0 -29.354,-3.414 -43.55,-8.837"
         id="path3657"
         inkscape:connector-curvature="0" /></clipPath><clipPath
       clipPathUnits="userSpaceOnUse"
       id="clipPath3721"><path
         d="M 0,900 H 700 V 0 H 0 Z"
         id="path3723"
         inkscape:connector-curvature="0" /></clipPath></defs><g
     inkscape:label="Layer 1"
     inkscape:groupmode="layer"
     id="layer1"><ellipse
       style="fill:none;stroke:#000000;stroke-width:0.763736;stroke-dasharray:none"
       id="path1"
       cx="44.043915"
       cy="223.14574"
       rx="72.055267"
       ry="71.370117" /><ellipse
       style="fill:none;stroke:#000000;stroke-width:1.04594;stroke-linecap:butt;stroke-linejoin:round;stroke-dasharray:none"
       id="path1-36"
       cx="71.035248"
       cy="196.92706"
       rx="98.679695"
       ry="97.741379" /><ellipse
       style="fill:none;stroke:#000000;stroke-width:1.4178;stroke-linecap:butt;stroke-linejoin:round;stroke-dasharray:none"
       id="path1-36-0"
       cx="82.717003"
       cy="182.70978"
       rx="133.76292"
       ry="132.49101" /><ellipse
       style="fill:none;stroke:#000000;stroke-width:1.8515;stroke-linecap:butt;stroke-linejoin:round;stroke-dasharray:none"
       id="path1-36-0-3"
       cx="88.838982"
       cy="173.68117"
       rx="174.68098"
       ry="173.01999" /><g
       id="g1"
       transform="matrix(0.1980734,0,0,0.1980734,1.40169,175.14779)"><path
         id="path46"
         style="fill:#646464;fill-opacity:1"
         d="m 184.61344,61.929363 c 0,-14.56215 -4.15226,-22.03817 -12.45678,-22.44755 -3.30427,-0.15595 -6.53055,0.37039 -9.66912,1.58878 -2.505,0.89673 -4.19124,1.78372 -5.07823,2.68045 v 34.75812 c 5.31216,3.33351 10.02976,4.88329 14.14303,4.63962 8.70415,-0.57508 13.0611,-7.64172 13.0611,-21.21942 z m 10.24419,0.60432 c 0,7.39804 -1.73498,13.53871 -5.22444,18.422 -3.88909,5.5266 -9.27923,8.37275 -16.17042,8.52871 -5.1952,0.1657 -10.54635,-1.46207 -16.05346,-4.87355 v 31.590317 l -8.90884,-3.17755 V 42.903043 c 1.46206,-1.79346 3.34325,-3.3335 5.62407,-4.63961 5.30242,-3.08983 11.74524,-4.67861 19.32848,-4.75658 l 0.12671,0.12671 c 6.93018,-0.08773 12.27159,2.75843 16.02422,8.5287 3.4992,5.29267 5.25368,12.07665 5.25368,20.37142 z" /><path
         id="path48"
         style="fill:#646464;fill-opacity:1"
         d="m 249.30487,83.265743 c 0,9.92254 -0.9942,16.794237 -2.9826,20.615097 -1.99816,3.82086 -5.79952,6.8717 -11.41385,9.14277 -4.55189,1.79346 -9.47417,2.76817 -14.75709,2.93387 l -1.47181,-5.61432 c 5.37064,-0.73103 9.15252,-1.46207 11.34561,-2.1931 4.31796,-1.46206 7.28108,-3.70389 8.90884,-6.706 1.30611,-2.446517 1.94942,-7.115367 1.94942,-14.026057 v -2.3198 c -6.09193,2.76817 -12.47628,4.14251 -19.15303,4.14251 -4.38619,0 -8.25579,-1.37434 -11.58929,-4.14251 -3.74289,-3.01186 -5.61433,-6.83272 -5.61433,-11.46258 v -37.07793 l 8.90884,-3.05084 v 37.3216 c 0,3.98656 1.28662,7.0569 3.85985,9.21101 2.57323,2.1541 5.90674,3.18729 9.99077,3.10932 4.08403,-0.08773 8.46047,-1.66676 13.10983,-4.75658 v -43.54025 h 8.90884 z" /><path
         id="path50"
         style="fill:#646464;fill-opacity:1"
         d="m 284.08249,88.997033 c -1.06243,0.08772 -2.03714,0.12671 -2.93387,0.12671 -5.03925,0 -8.96733,-1.19889 -11.77449,-3.60642 -2.79742,-2.40753 -4.20099,-5.73129 -4.20099,-9.97127 v -35.08953 h -6.10168 v -5.60457 h 6.10168 v -14.88381 l 8.89909,-3.16781 v 18.05162 h 10.01026 v 5.60457 h -10.01026 v 34.84585 c 0,3.34325 0.89673,5.71179 2.6902,7.09588 1.54004,1.14041 3.98656,1.79347 7.32006,1.95917 z" /><path
         id="path52"
         style="fill:#646464;fill-opacity:1"
         d="m 338.02288,88.266003 h -8.90884 v -34.38773 c 0,-3.49921 -0.81876,-6.51106 -2.44651,-9.02581 -1.88119,-2.84615 -4.49342,-4.26923 -7.84641,-4.26923 -4.08404,0 -9.19152,2.15411 -15.32242,6.46233 v 41.22044 h -8.90885 V 6.0687929 l 8.90885,-2.80716 V 40.700203 c 5.6923,-4.14251 11.91093,-6.21864 18.66566,-6.21864 4.7176,0 8.53846,1.58877 11.46258,4.75658 2.93388,3.1678 4.39594,7.11537 4.39594,11.83296 z" /><path
         id="path54"
         style="fill:#646464;fill-opacity:1"
         d="m 385.37424,60.525783 c 0,-5.59483 -1.06242,-10.21495 -3.17755,-13.87011 -2.51474,-4.45442 -6.42332,-6.80347 -11.70625,-7.04715 -9.76658,0.56534 -14.64012,7.56375 -14.64012,20.97574 0,6.15042 1.01369,11.28713 3.06057,15.41015 2.61223,5.25368 6.53056,7.84641 11.755,7.75869 9.80557,-0.07798 14.70835,-7.81717 14.70835,-23.22732 z m 9.75685,0.05848 c 0,7.96338 -2.03714,14.5914 -6.10168,19.88407 -4.47391,5.92623 -10.65357,8.89909 -18.53897,8.89909 -7.81716,0 -13.90909,-2.97286 -18.30503,-8.89909 -3.98656,-5.29267 -5.97497,-11.92069 -5.97497,-19.88407 0,-7.48576 2.15411,-13.78238 6.46232,-18.90935 4.5519,-5.43888 10.53661,-8.16806 17.93464,-8.16806 7.39805,0 13.42174,2.72918 18.06137,8.16806 4.3082,5.12697 6.46232,11.42359 6.46232,18.90935 z" /><path
         id="path56"
         style="fill:#646464;fill-opacity:1"
         d="m 446.20583,88.266003 h -8.90884 v -36.33715 c 0,-3.98656 -1.19889,-7.09588 -3.59667,-9.33772 -2.39779,-2.23208 -5.59483,-3.31401 -9.58139,-3.22628 -4.23023,0.07798 -8.25579,1.46206 -12.07664,4.14251 v 44.75864 h -8.90884 v -45.86006 c 5.12697,-3.73313 9.84456,-6.16991 14.15276,-7.31032 4.06455,-1.06243 7.65148,-1.58877 10.74131,-1.58877 2.11512,0 4.10352,0.20469 5.97496,0.61406 3.49921,0.80901 6.34535,2.31006 8.53845,4.51291 2.44651,2.43677 3.6649,5.3609 3.6649,8.78212 z" /><path
         style="fill:url(#linearGradient1478);fill-opacity:1"
         d="m 60.510156,6.3979729 c -4.583653,0.021298 -8.960939,0.4122177 -12.8125,1.09375 C 36.35144,9.4962267 34.291407,13.691825 34.291406,21.429223 v 10.21875 h 26.8125 v 3.40625 h -26.8125 -10.0625 c -7.792459,0 -14.6157592,4.683717 -16.7500002,13.59375 -2.46182,10.212966 -2.5710151,16.586023 0,27.25 1.9059283,7.937852 6.4575432,13.593748 14.2500002,13.59375 h 9.21875 v -12.25 c 0,-8.849902 7.657144,-16.656248 16.75,-16.65625 h 26.78125 c 7.454951,0 13.406253,-6.138164 13.40625,-13.625 v -25.53125 c 0,-7.266339 -6.12998,-12.7247775 -13.40625,-13.9375001 -4.605987,-0.7667253 -9.385097,-1.1150483 -13.96875,-1.09375 z m -14.5,8.2187501 c 2.769547,0 5.03125,2.298646 5.03125,5.125 -2e-6,2.816336 -2.261703,5.09375 -5.03125,5.09375 -2.779476,-1e-6 -5.03125,-2.277415 -5.03125,-5.09375 -1e-6,-2.826353 2.251774,-5.125 5.03125,-5.125 z"
         id="path1948" /><path
         style="fill:url(#linearGradient1475);fill-opacity:1"
         d="m 91.228906,35.054223 v 11.90625 c 0,9.230755 -7.825895,16.999999 -16.75,17 h -26.78125 c -7.335833,0 -13.406249,6.278483 -13.40625,13.625 v 25.531247 c 0,7.26634 6.318588,11.54032 13.40625,13.625 8.487331,2.49561 16.626237,2.94663 26.78125,0 6.750155,-1.95439 13.406253,-5.88761 13.40625,-13.625 V 92.897973 h -26.78125 v -3.40625 h 26.78125 13.406254 c 7.79246,0 10.69625,-5.435408 13.40624,-13.59375 2.79933,-8.398886 2.68022,-16.475776 0,-27.25 -1.92578,-7.757441 -5.60387,-13.59375 -13.40624,-13.59375 z m -15.0625,64.65625 c 2.779478,3e-6 5.03125,2.277417 5.03125,5.093747 -2e-6,2.82635 -2.251775,5.125 -5.03125,5.125 -2.76955,0 -5.03125,-2.29865 -5.03125,-5.125 2e-6,-2.81633 2.261697,-5.093747 5.03125,-5.093747 z"
         id="path1950" /><path
         d="m 463.5544,26.909383 h 1.56195 v -9.79624 h 3.70013 v -1.16766 h -8.96221 v 1.16766 h 3.70013 v 9.79624 m 6.64702,0 h 1.33447 v -8.94703 l 2.89641,8.945906 h 1.48569 l 3.01816,-8.915576 v 8.9167 h 1.45579 v -10.9639 h -1.92589 l -3.29831,9.392857 -2.81297,-9.392857 h -2.15335 v 10.9639"
         style="font-style:normal;font-weight:normal;font-size:15.1645px;line-height:125%;font-family:'Bitstream Vera Sans';fill:#646464;fill-opacity:1;stroke:none;stroke-width:1px;stroke-linecap:butt;stroke-linejoin:miter;stroke-opacity:1"
         id="text3004"
         sodipodi:nodetypes="ccccccccccccccccccccccc" /><ellipse
         style="opacity:0.44382;fill:url(#radialGradient1480);fill-opacity:1;fill-rule:nonzero;stroke:none;stroke-width:20;stroke-miterlimit:4;stroke-dasharray:none;stroke-opacity:1"
         id="path1894"
         transform="matrix(0.73406,0,0,0.809524,16.24958,27.00935)"
         cx="61.518883"
         cy="132.28575"
         rx="48.948284"
         ry="8.6066771" /></g><g
       id="g8"
       transform="matrix(0.0677237,0,0,0.0677237,13.34346,120.53284)"><path
         d="m 80.51,127.89 83.85,-48.38 a 2.69,2.69 0 0 0 1.34,-2.32 v -29 A 13.89,13.89 0 0 0 160.52,37 13.21,13.21 0 0 0 145.72,36 L 28.43,103.73 a 13.32,13.32 0 0 0 -6.67,11.54 v 152.84 a 13.91,13.91 0 0 0 5.17,11.14 13.23,13.23 0 0 0 14.82,1 l 24.84,-14.33 a 2.68,2.68 0 0 0 1.34,-2.32 V 149.7 a 25.16,25.16 0 0 1 12.58,-21.81 z"
         fill="#ffc11e"
         id="path1-3" /><path
         d="m 281.51,106 a 13.21,13.21 0 0 0 -13.33,0 l -117.29,67.63 a 13.36,13.36 0 0 0 -6.67,11.54 l -0.05,153.42 a 13.34,13.34 0 0 0 20,11.55 l 117.28,-67.68 a 13.34,13.34 0 0 0 6.67,-11.54 L 288.17,117.5 A 13.19,13.19 0 0 0 281.51,106 Z"
         fill="#ef1161"
         id="path2" /><path
         d="m 145,163.36 77.4,-44.65 a 2.7,2.7 0 0 0 1.33,-2.32 V 82.6 a 13.86,13.86 0 0 0 -5.19,-11.15 13.25,13.25 0 0 0 -14.8,-1 L 171.62,89 86.43,138.15 a 13.33,13.33 0 0 0 -6.66,11.54 v 115.45 37.39 a 13.89,13.89 0 0 0 5.18,11.14 13.25,13.25 0 0 0 14.81,1 L 131,296.61 a 2.68,2.68 0 0 0 1.34,-2.32 V 185.17 A 25.17,25.17 0 0 1 145,163.36 Z"
         fill="#fc6e6b"
         id="path3" /><g
         id="g7"><path
           d="M 375.29,224.46 V 178 c 0,-39.85 23.53,-67.14 59,-67.14 25.41,0 42.36,13.17 49.25,25.41 V 52.2 a 3.79,3.79 0 0 1 4.09,-4.08 h 30.75 a 4,4 0 0 1 4.07,4.08 v 230.93 c 0,2.51 -1.57,4.08 -4.39,4.08 h -29.19 a 3.79,3.79 0 0 1 -4.08,-4.08 v -17.57 c -7.21,12.24 -24.47,25.1 -48.94,25.1 -37.34,0 -60.56,-26.35 -60.56,-66.2 z m 108.24,-5.65 v -35.14 c 0,-24.47 -16,-38.59 -35.76,-38.59 -22,0 -33.57,14.43 -33.57,38.59 v 35.14 c 0,24.47 11.61,37.65 33.57,37.65 19.77,0 35.76,-13.18 35.76,-37.65 z"
           fill="#04255c"
           id="path4" /><path
           d="m 692.49,167.67 v 115.15 c 0,2.82 -1.57,4.39 -4.39,4.39 h -27.62 c -2.82,0 -4.39,-1.57 -4.39,-4.39 v -20.4 c -10.66,17.26 -28.24,28.24 -49.57,28.24 -32.63,0 -53.34,-21.33 -53.34,-52.4 0,-31.37 20.71,-49.57 65.89,-52.71 a 268.17,268.17 0 0 1 35.46,-0.31 v -16 c 0,-19.46 -10.67,-27.3 -28.56,-27.3 -17.89,0 -24.47,6.59 -28.86,18.82 -1.26,3.45 -2.51,4.08 -6,3.14 L 563.85,157 c -2.83,-0.94 -3.77,-2.51 -2.83,-5 5,-24.48 27.3,-41.42 66.52,-41.42 40.46,-0.02 64.95,19.12 64.95,57.09 z m -38,63.69 V 210 a 275.38,275.38 0 0 0 -32.32,0.62 c -20.4,2.2 -32,9.1 -32,25.42 0,14.12 9.73,23.21 26.36,23.21 17.6,0.03 31.09,-10.32 38,-27.89 z"
           fill="#04255c"
           id="path5" /><path
           d="m 856.27,151.35 c 0.94,2.82 0,5 -3.14,6 l -22.91,8.16 c -3.45,0.94 -5,0 -6,-3.14 -5,-14.12 -16.31,-21 -33.25,-21 -17.58,0 -27.93,7.22 -27.93,18.51 0,10.67 7.21,15.06 40.47,24.47 39.23,11 54.91,26.36 54.91,53.66 0,32 -26.35,53 -66.83,53 -36.4,0 -62.75,-15.06 -70.91,-40.79 -1.26,-3.45 0,-5.34 3.77,-6.91 l 20.39,-10 c 3.76,-1.25 5.65,-0.62 6.9,3.77 4.71,14.43 19.46,23.22 38.59,23.22 19.46,0 30.76,-7.53 30.76,-19.77 0,-11.3 -9.42,-17.26 -42,-26.36 -37.65,-10.67 -53.34,-25.41 -53.34,-51.77 0,-31.06 25.42,-51.77 64,-51.77 33.89,-0.07 58.36,14.99 66.52,40.72 z"
           fill="#04255c"
           id="path6" /><path
           d="m 1030.09,287.21 h -32.95 c -3.14,0 -4.39,-1.25 -5.65,-3.76 l -39.22,-72.17 -23.54,27.61 v 43.93 c 0,2.82 -1.56,4.39 -4.39,4.39 h -30.12 c -2.82,0 -4.39,-1.57 -4.39,-4.39 V 52.2 a 4.11,4.11 0 0 1 4.39,-4.39 h 30.12 a 4.11,4.11 0 0 1 4.39,4.39 v 139 l 59,-72.8 c 2.83,-3.13 5,-4.39 8.79,-4.39 h 31.69 a 3.53,3.53 0 0 1 2.83,6 l -52.72,61.19 54.91,100.09 c 1.87,3.1 -0.01,5.92 -3.14,5.92 z"
           fill="#04255c"
           id="path7" /></g></g><g
       id="g5"
       transform="matrix(0.12859124,0,0,0.13436794,68.357386,25.61657)"><text
         xml:space="preserve"
         style="font-style:normal;font-variant:normal;font-weight:normal;font-stretch:normal;line-height:0%;font-family:Ayuthaya;-inkscape-font-specification:Ayuthaya;letter-spacing:0px;word-spacing:0px;fill:#000000;fill-opacity:1;stroke:none"
         x="227.80064"
         y="97.573219"
         id="text3792"><tspan
           id="tspan3794"
           x="227.80064"
           y="97.573219"
           style="font-style:normal;font-variant:normal;font-weight:600;font-stretch:normal;font-size:185px;line-height:125%;font-family:'Source Sans Pro';-inkscape-font-specification:'Source Sans Pro Semi-Bold';text-align:start;writing-mode:lr-tb;text-anchor:start"><tspan
             style="fill:#505050"
             id="tspan3798">astro</tspan><tspan
             style="font-style:normal;font-variant:normal;font-weight:300;font-stretch:normal;font-size:185px;line-height:125%;font-family:'Source Sans Pro';-inkscape-font-specification:'Source Sans Pro Light';text-align:start;writing-mode:lr-tb;text-anchor:start;fill:#ff5000;fill-opacity:1"
             id="tspan3796">py</tspan></tspan></text><ellipse
         style="fill:url(#linearGradient3798);fill-opacity:1;fill-rule:nonzero;stroke:none"
         id="path3837"
         transform="matrix(1.0651076,-0.90408718,0.89013474,1.0731629,-250.16148,-67.548145)"
         mask="none"
         clip-path="none"
         cx="140.91628"
         cy="233.12846"
         rx="80.322945"
         ry="68.372307" /><path
         style="fill:none;stroke:#ffffff;stroke-width:14.3305;stroke-linecap:butt;stroke-linejoin:miter;stroke-miterlimit:4;stroke-dasharray:none;stroke-opacity:1"
         id="path5413"
         d="m 238.396,198.78328 c 32.61949,7.06756 15.40308,37.20961 -8.24653,38.06088 -26.00022,0.93589 -44.08994,-24.61831 -41.97511,-48.94224 2.67817,-30.80329 32.53302,-51.80129 62.38812,-48.26147"
         transform="matrix(-0.71212781,-0.99456325,-0.9777811,0.72852659,474.31246,145.67479)" /><ellipse
         style="fill:#ffffff;fill-opacity:1;stroke:none"
         id="path3819"
         transform="matrix(1.0512298,0.82294962,-0.97239782,0.94168108,304.90482,-361.44933)"
         cx="122.22845"
         cy="337.67926"
         rx="22.223356"
         ry="12.626906" /><path
         style="fill:#ffffff;fill-opacity:1;stroke:#ffffff;stroke-width:2.36032;stroke-linecap:round;stroke-linejoin:round;stroke-miterlimit:4;stroke-dasharray:none;stroke-opacity:1"
         d="m 136.88413,-13.10567 13.09858,22.1959915 20.1541,-20.0243955 -25.57713,-10.690029 z"
         id="path3853" /><g
         id="g3804"
         transform="matrix(0.95039189,0,0,0.93299787,-2.487134,-0.56516029)"><path
           id="path3855-7"
           d="m 142.07904,-24.83606 -2.29208,-13.70422 0.18559,0.452199 v 0"
           style="fill:none;stroke:#ffffff;stroke-width:3.72636;stroke-linecap:butt;stroke-linejoin:miter;stroke-miterlimit:4;stroke-dasharray:none;stroke-opacity:1" /><path
           id="path3855-7-0"
           d="m 127.81295,-26.11257 15.12343,0.663566 -0.4755,0.06597 v 0"
           style="fill:none;stroke:#ffffff;stroke-width:4.02542;stroke-linecap:butt;stroke-linejoin:miter;stroke-miterlimit:4;stroke-dasharray:none;stroke-opacity:1" /><path
           id="path3855-7-05"
           d="m 150.77669,-18.240009 -9.57586,-7.57806 0.46343,0.302121 v 0"
           style="fill:none;stroke:#ffffff;stroke-width:4.06302;stroke-linecap:butt;stroke-linejoin:miter;stroke-miterlimit:4;stroke-dasharray:none;stroke-opacity:1" /></g><path
         style="fill:none;stroke:#ffffff;stroke-width:17.4574;stroke-linecap:butt;stroke-linejoin:miter;stroke-miterlimit:4;stroke-dasharray:none;stroke-opacity:1"
         d="m 67.476992,131.73602 c 3.410653,2.96251 14.804165,7.71706 18.766169,12.74152 4.041356,5.12504 3.407665,10.98393 3.371624,14.32634"
         id="path3942" /><path
         style="fill:none;stroke:#ffffff;stroke-width:13.9387;stroke-linecap:butt;stroke-linejoin:miter;stroke-miterlimit:4;stroke-dasharray:none;stroke-opacity:1"
         id="path2987-5"
         d="m 238.396,198.78328 c 32.61946,7.06755 15.40307,37.20957 -8.24652,38.06085 -26.0002,0.93588 -44.0899,-24.61829 -41.97507,-48.9422 2.70006,-31.05511 32.97695,-52.07076 63.01891,-48.18321 1.11735,0.14459 2.2306,0.32088 3.33799,0.52843"
         transform="matrix(0.95949998,0.82835015,0.79893463,-0.95307413,-285.3304,56.888018)" /><flowRoot
         xml:space="preserve"
         id="flowRoot3781"
         style="font-style:normal;font-weight:normal;line-height:0.01%;font-family:sans-serif;letter-spacing:0px;word-spacing:0px;fill:#000000;fill-opacity:1;stroke:none"
         transform="translate(-2.5547457,-54.766869)"><flowRegion
           id="flowRegion3783"
           style="font-family:sans-serif"><rect
             id="rect3785"
             width="565.68542"
             height="52.527931"
             x="237.38585"
             y="157.37054" /></flowRegion><flowPara
           id="flowPara3787"
           style="font-style:normal;font-variant:normal;font-weight:normal;font-stretch:normal;font-size:72px;line-height:1.25;font-family:'Myriad Pro';-inkscape-font-specification:'Myriad Pro'">Community</flowPara></flowRoot></g><g
       id="figure_1"
       transform="matrix(0.49566226,0,0,0.49566226,126.74916,74.282473)"><g
         id="patch_1"><path
           d="M 0,79.2 H 79.2 V 0 H 0 Z"
           style="opacity:0;fill:none"
           id="path1-70" /></g><g
         id="axes_1"><g
           id="patch_2"><path
             d="m 76.824,39.6 c 0,-4.888211 -0.962871,-9.72889 -2.833508,-14.245008 C 72.119854,20.838874 69.37783,16.735144 65.921343,13.278657 62.464856,9.82217 58.361126,7.080146 53.845008,5.209508 49.32889,3.338871 44.488211,2.376 39.6,2.376 34.711789,2.376 29.87111,3.338871 25.354992,5.209508 20.838874,7.080146 16.735144,9.82217 13.278657,13.278657 9.82217,16.735144 7.080146,20.838874 5.209508,25.354992 3.338871,29.87111 2.376,34.711789 2.376,39.6 c 0,4.888211 0.962871,9.72889 2.833508,14.245008 1.870638,4.516118 4.612662,8.619848 8.069149,12.076335 3.456487,3.456487 7.560217,6.198511 12.076335,8.069149 C 29.87111,75.861129 34.711789,76.824 39.6,76.824 c 4.888211,0 9.72889,-0.962871 14.245008,-2.833508 4.516118,-1.870638 8.619848,-4.612662 12.076335,-8.069149 3.456487,-3.456487 6.198511,-7.560217 8.069149,-12.076335 C 75.861129,49.32889 76.824,44.488211 76.824,39.6 m -37.224,0 c 0,0 0,0 0,0 0,0 0,0 0,0 z"
             style="fill:#ffffff"
             id="path2-9" /></g><g
           id="patch_3"><path
             d="m 39.6,39.6 c 0,0 0,0 0,0 0,0 0,0 0,0 0,0 0,0 0,0 0,0 0,0 0,0 0,0 0,0 0,0 0,0 0,0 0,0 0,0 0,0 0,0 0,0 0,0 0,0 0,0 0,0 0,0 0,0 0,0 0,0 0,0 0,0 0,0 0,0 0,0 0,0 0,0 0,0 0,0 0,0 0,0 0,0 0,0 0,0 0,0 0,0 0,0 0,0 h 39.62288 c 0,5.203229 -1.024923,10.355863 -3.016112,15.16302 -1.99119,4.807156 -4.909922,9.175349 -8.589161,12.854587 -3.679238,3.679239 -8.047431,6.597971 -12.854587,8.589161 -4.807157,1.991189 -9.959791,3.016112 -15.16302,3.016112 -5.203229,0 -10.355863,-1.024923 -15.16302,-3.016112 C 19.629824,74.215578 15.261631,71.296846 11.582393,67.617607 7.903154,63.938369 4.984422,59.570176 2.993232,54.76302 1.002043,49.955863 -0.02288,44.803229 -0.02288,39.6 c 0,-5.203229 1.024923,-10.355863 3.016112,-15.16302 1.99119,-4.807156 4.909922,-9.175349 8.589161,-12.854587 C 15.261631,7.903154 19.629824,4.984422 24.43698,2.993232 29.244137,1.002043 34.396771,-0.02288 39.6,-0.02288 c 5.203229,0 10.355863,1.024923 15.16302,3.016112 4.807156,1.99119 9.175349,4.909922 12.854587,8.589161 3.679239,3.679238 6.597971,8.047431 8.589161,12.854587 1.991189,4.807157 3.016112,9.959791 3.016112,15.16302 z"
             style="fill:#ffffff"
             id="path3-36" /></g><g
           id="matplotlib.axis_1"><g
             id="xtick_1"><g
               id="line2d_1"><path
                 d="M 39.6,39.6 H 76.824"
                 clip-path="url(#pdafd30e422)"
                 style="fill:none;stroke:#e6e6e6;stroke-width:0.5;stroke-linecap:square"
                 id="path4-0" /></g></g><g
             id="xtick_2"><g
               id="line2d_2"><path
                 d="M 39.6,39.6 65.921343,13.278657"
                 clip-path="url(#pdafd30e422)"
                 style="fill:none;stroke:#e6e6e6;stroke-width:0.5;stroke-linecap:square"
                 id="path5-62" /></g></g><g
             id="xtick_3"><g
               id="line2d_3"><path
                 d="M 39.6,39.6 V 2.376"
                 clip-path="url(#pdafd30e422)"
                 style="fill:none;stroke:#e6e6e6;stroke-width:0.5;stroke-linecap:square"
                 id="path6-6" /></g></g><g
             id="xtick_4"><g
               id="line2d_4"><path
                 d="M 39.6,39.6 13.278657,13.278657"
                 clip-path="url(#pdafd30e422)"
                 style="fill:none;stroke:#e6e6e6;stroke-width:0.5;stroke-linecap:square"
                 id="path7-1" /></g></g><g
             id="xtick_5"><g
               id="line2d_5"><path
                 d="M 39.6,39.6 H 2.376"
                 clip-path="url(#pdafd30e422)"
                 style="fill:none;stroke:#e6e6e6;stroke-width:0.5;stroke-linecap:square"
                 id="path8" /></g></g><g
             id="xtick_6"><g
               id="line2d_6"><path
                 d="M 39.6,39.6 13.278657,65.921343"
                 clip-path="url(#pdafd30e422)"
                 style="fill:none;stroke:#e6e6e6;stroke-width:0.5;stroke-linecap:square"
                 id="path9" /></g></g><g
             id="xtick_7"><g
               id="line2d_7"><path
                 d="M 39.6,39.6 V 76.824"
                 clip-path="url(#pdafd30e422)"
                 style="fill:none;stroke:#e6e6e6;stroke-width:0.5;stroke-linecap:square"
                 id="path10" /></g></g><g
             id="xtick_8"><g
               id="line2d_8"><path
                 d="M 39.6,39.6 65.921343,65.921343"
                 clip-path="url(#pdafd30e422)"
                 style="fill:none;stroke:#e6e6e6;stroke-width:0.5;stroke-linecap:square"
                 id="path11" /></g></g></g><g
           id="matplotlib.axis_2"><g
             id="ytick_1"><g
               id="line2d_9"><path
                 d="m 43.736,39.6 c 0,-0.543135 -0.106986,-1.080988 -0.314834,-1.582779 C 43.213317,37.51543 42.908648,37.05946 42.524594,36.675406 42.14054,36.291352 41.68457,35.986683 41.182779,35.778834 40.680988,35.570986 40.143135,35.464 39.6,35.464 c -0.543135,0 -1.080988,0.106986 -1.582779,0.314834 -0.501791,0.207849 -0.957761,0.512518 -1.341815,0.896572 -0.384054,0.384054 -0.688723,0.840024 -0.896572,1.341815 C 35.570986,38.519012 35.464,39.056865 35.464,39.6 c 0,0.543135 0.106986,1.080988 0.314834,1.582779 0.207849,0.501791 0.512518,0.957761 0.896572,1.341815 0.384054,0.384054 0.840024,0.688723 1.341815,0.896572 C 38.519012,43.629014 39.056865,43.736 39.6,43.736 c 0.543135,0 1.080988,-0.106986 1.582779,-0.314834 0.501791,-0.207849 0.957761,-0.512518 1.341815,-0.896572 0.384054,-0.384054 0.688723,-0.840024 0.896572,-1.341815 C 43.629014,40.680988 43.736,40.143135 43.736,39.6"
                 clip-path="url(#pdafd30e422)"
                 style="fill:none;stroke:#e6e6e6;stroke-width:0.5;stroke-linecap:square"
                 id="path12-8" /></g></g><g
             id="ytick_2"><g
               id="line2d_10"><path
                 d="m 52.008,39.6 c 0,-1.629404 -0.320957,-3.242963 -0.944503,-4.748336 -0.623546,-1.505373 -1.537554,-2.873283 -2.689716,-4.025445 -1.152162,-1.152162 -2.520072,-2.06617 -4.025445,-2.689716 C 42.842963,27.512957 41.229404,27.192 39.6,27.192 c -1.629404,0 -3.242963,0.320957 -4.748336,0.944503 -1.505373,0.623546 -2.873283,1.537554 -4.025445,2.689716 -1.152162,1.152162 -2.06617,2.520072 -2.689716,4.025445 C 27.512957,36.357037 27.192,37.970596 27.192,39.6 c 0,1.629404 0.320957,3.242963 0.944503,4.748336 0.623546,1.505373 1.537554,2.873283 2.689716,4.025445 1.152162,1.152162 2.520072,2.06617 4.025445,2.689716 C 36.357037,51.687043 37.970596,52.008 39.6,52.008 c 1.629404,0 3.242963,-0.320957 4.748336,-0.944503 1.505373,-0.623546 2.873283,-1.537554 4.025445,-2.689716 1.152162,-1.152162 2.06617,-2.520072 2.689716,-4.025445 C 51.687043,42.842963 52.008,41.229404 52.008,39.6"
                 clip-path="url(#pdafd30e422)"
                 style="fill:none;stroke:#e6e6e6;stroke-width:0.5;stroke-linecap:square"
                 id="path13" /></g></g><g
             id="ytick_3"><g
               id="line2d_11"><path
                 d="m 60.28,39.6 c 0,-2.715673 -0.534928,-5.404939 -1.574171,-7.913893 -1.039243,-2.508955 -2.56259,-4.788805 -4.482861,-6.709075 -1.92027,-1.920271 -4.20012,-3.443618 -6.709075,-4.482861 C 45.004939,19.454928 42.315673,18.92 39.6,18.92 c -2.715673,0 -5.404939,0.534928 -7.913893,1.574171 -2.508955,1.039243 -4.788805,2.56259 -6.709075,4.482861 -1.920271,1.92027 -3.443618,4.20012 -4.482861,6.709075 C 19.454928,34.195061 18.92,36.884327 18.92,39.6 c 0,2.715673 0.534928,5.404939 1.574171,7.913893 1.039243,2.508955 2.56259,4.788805 4.482861,6.709075 1.92027,1.920271 4.20012,3.443618 6.709075,4.482861 C 34.195061,59.745072 36.884327,60.28 39.6,60.28 c 2.715673,0 5.404939,-0.534928 7.913893,-1.574171 2.508955,-1.039243 4.788805,-2.56259 6.709075,-4.482861 1.920271,-1.92027 3.443618,-4.20012 4.482861,-6.709075 C 59.745072,45.004939 60.28,42.315673 60.28,39.6"
                 clip-path="url(#pdafd30e422)"
                 style="fill:none;stroke:#e6e6e6;stroke-width:0.5;stroke-linecap:square"
                 id="path14" /></g></g><g
             id="ytick_4"><g
               id="line2d_12"><path
                 d="m 68.552,39.6 c 0,-3.801942 -0.7489,-7.566915 -2.20384,-11.079451 C 64.89322,25.008013 62.760534,21.816223 60.072156,19.127844 57.383777,16.439466 54.191987,14.30678 50.679451,12.85184 47.166915,11.3969 43.401942,10.648 39.6,10.648 c -3.801942,0 -7.566915,0.7489 -11.079451,2.20384 -3.512536,1.45494 -6.704326,3.587626 -9.392705,6.276004 -2.688378,2.688379 -4.821064,5.880169 -6.276004,9.392705 C 11.3969,32.033085 10.648,35.798058 10.648,39.6 c 0,3.801942 0.7489,7.566915 2.20384,11.079451 1.45494,3.512536 3.587626,6.704326 6.276004,9.392705 2.688379,2.688378 5.880169,4.821064 9.392705,6.276004 C 32.033085,67.8031 35.798058,68.552 39.6,68.552 c 3.801942,0 7.566915,-0.7489 11.079451,-2.20384 3.512536,-1.45494 6.704326,-3.587626 9.392705,-6.276004 2.688378,-2.688379 4.821064,-5.880169 6.276004,-9.392705 C 67.8031,47.166915 68.552,43.401942 68.552,39.6"
                 clip-path="url(#pdafd30e422)"
                 style="fill:none;stroke:#e6e6e6;stroke-width:0.5;stroke-linecap:square"
                 id="path15" /></g></g></g><g
           id="patch_4"><path
             d="m 39.6,39.6 c 0,0 0,0 0,0 0,0 0,0 0,0 l 7.86714,-2.556189 c 0.13391,0.412135 0.235228,0.834155 0.303018,1.262163 C 47.837948,38.733982 47.872,39.166657 47.872,39.6 Z"
             clip-path="url(#pdafd30e422)"
             style="fill:#004cff;fill-opacity:0.6;stroke:#4c4c4c;stroke-width:0.7;stroke-linejoin:miter"
             id="path16" /></g><g
           id="patch_5"><path
             d="m 39.6,39.6 c 0,0 0,0 0,0 0,0 0,0 0,0 l 8.719718,-23.233605 c 1.217133,0.456798 2.396492,1.008533 3.527182,1.650109 1.13069,0.641576 2.209218,1.37101 3.225623,2.181566 z"
             clip-path="url(#pdafd30e422)"
             style="fill:#ceff29;fill-opacity:0.6;stroke:#4c4c4c;stroke-width:0.7;stroke-linejoin:miter"
             id="path17" /></g><g
           id="patch_6"><path
             d="m 39.6,39.6 c 0,0 0,0 0,0 0,0 0,0 0,0 L 18.394708,14.200171 c 1.997202,-1.667384 4.184113,-3.093402 6.515376,-4.248478 2.331262,-1.155076 4.790647,-2.031169 7.327143,-2.610108 z"
             clip-path="url(#pdafd30e422)"
             style="fill:#ff6800;fill-opacity:0.6;stroke:#4c4c4c;stroke-width:0.7;stroke-linejoin:miter"
             id="path18" /></g><g
           id="patch_7"><path
             d="m 39.6,39.6 c 0,0 0,0 0,0 0,0 0,0 0,0 l -28.486729,5.169579 c -0.542468,-2.989244 -0.611058,-6.045329 -0.203249,-9.055901 0.40781,-3.010571 1.28696,-5.938276 2.605127,-8.67548 z"
             clip-path="url(#pdafd30e422)"
             style="fill:#ffc400;fill-opacity:0.6;stroke:#4c4c4c;stroke-width:0.7;stroke-linejoin:miter"
             id="path19" /></g><g
           id="patch_8"><path
             d="m 39.6,39.6 c 0,0 0,0 0,0 0,0 0,0 0,0 l -13.599202,9.421551 c -0.246688,-0.356072 -0.479295,-0.721695 -0.697285,-1.096024 -0.21799,-0.374329 -0.421194,-0.757076 -0.609142,-1.147354 z"
             clip-path="url(#pdafd30e422)"
             style="fill:#29ffce;fill-opacity:0.6;stroke:#4c4c4c;stroke-width:0.7;stroke-linejoin:miter"
             id="path20" /></g><g
           id="patch_9"><path
             d="m 39.6,39.6 c 0,0 0,0 0,0 0,0 0,0 0,0 l 3.464029,20.387813 c -1.33545,0.226902 -2.689969,0.322043 -4.044026,0.284052 -1.354056,-0.03799 -2.701109,-0.208931 -4.021736,-0.510356 z"
             clip-path="url(#pdafd30e422)"
             style="fill:#7dff7a;fill-opacity:0.6;stroke:#4c4c4c;stroke-width:0.7;stroke-linejoin:miter"
             id="path21" /></g><g
           id="patch_10"><path
             d="m 39.6,39.6 c 0,0 0,0 0,0 0,0 0,0 0,0 l 26.099075,20.338486 c -0.798921,1.025204 -1.657556,2.002445 -2.571439,2.92664 -0.913884,0.924195 -1.881429,1.793741 -2.897605,2.604114 z"
             clip-path="url(#pdafd30e422)"
             style="fill:#ff6800;fill-opacity:0.6;stroke:#4c4c4c;stroke-width:0.7;stroke-linejoin:miter"
             id="path22" /></g><g
           id="patch_11"><path
             d="m 76.824,39.6 c 0,-4.888211 -0.962871,-9.72889 -2.833508,-14.245008 C 72.119854,20.838874 69.37783,16.735144 65.921343,13.278657 62.464856,9.82217 58.361126,7.080146 53.845008,5.209508 49.32889,3.338871 44.488211,2.376 39.6,2.376 34.711789,2.376 29.87111,3.338871 25.354992,5.209508 20.838874,7.080146 16.735144,9.82217 13.278657,13.278657 9.82217,16.735144 7.080146,20.838874 5.209508,25.354992 3.338871,29.87111 2.376,34.711789 2.376,39.6 c 0,4.888211 0.962871,9.72889 2.833508,14.245008 1.870638,4.516118 4.612662,8.619848 8.069149,12.076335 3.456487,3.456487 7.560217,6.198511 12.076335,8.069149 C 29.87111,75.861129 34.711789,76.824 39.6,76.824 c 4.888211,0 9.72889,-0.962871 14.245008,-2.833508 4.516118,-1.870638 8.619848,-4.612662 12.076335,-8.069149 3.456487,-3.456487 6.198511,-7.560217 8.069149,-12.076335 C 75.861129,49.32889 76.824,44.488211 76.824,39.6"
             style="fill:none;stroke:#11557c;stroke-linecap:square;stroke-linejoin:miter"
             id="path23" /></g></g></g><g
       style="overflow:visible"
       id="g2"
       transform="matrix(0.07269129,0,0,0.07269129,166.12684,137.39024)"><path
         id="circle"
         style="fill:#0054a6;fill-opacity:1;stroke:none;stroke-width:2.963;stroke-miterlimit:4;stroke-dasharray:none"
         d="M 280.01172,27.300781 A 252.57939,252.57939 0 0 0 27.431641,279.88086 a 252.57939,252.57939 0 0 0 30.3125,119.88476 c 1.451094,0.33906 2.843351,0.89254 4.197265,1.51563 4.898813,2.2545 9.52728,5.5132 12.273438,10.1543 1.373078,2.32054 2.243289,4.9602 2.353515,7.65429 0.109208,2.66918 -0.559217,5.3831 -2.007812,7.62696 A 252.57939,252.57939 0 0 0 280.01172,532.45898 252.57939,252.57939 0 0 0 532.5918,279.88086 252.57939,252.57939 0 0 0 280.01172,27.300781 Z" /><path
         fill-rule="evenodd"
         clip-rule="evenodd"
         fill="#0054a6"
         d="m 513.56686,184.93081 12.891,-5.996 8.711,-23.809 9.141,3.203 -7.852,21.289 21.758,7.5 -3.281,8.916 -24.297,-8.486 -13.398,6.162"
         id="tongue"
         style="fill:#0054a6;fill-opacity:1"
         sodipodi:nodetypes="ccccccccc" /><switch
         id="switch8080"
         transform="translate(548.0469,-157.95312)"
         style="fill:#0054a6;fill-opacity:1" /><path
         fill-rule="evenodd"
         clip-rule="evenodd"
         fill="#0054a6"
         d="m 373.90992,313.03486 c -17.39799,-23.797 -51.77696,-37.63286 -81.2681,-44.12822 -29.49115,-6.49535 -47.44014,-11.51901 -61.77612,-19.27626 -16.36281,-8.85397 -29.22641,-34.96222 -24.20294,-57.598 7.88381,-35.52446 39.61017,-61.08652 75.84117,-56.02752 18.094,2.559 33.438,12.139 43.55499,25.625 l 40.117,52.705 c 22.93,29.531 48.71101,38.32 76.758,24.375 l 13.64756,-6.45002 c 1.133,-0.527 2.50681,-1.59041 4.73081,-0.88308 2.224,0.70733 3.31502,2.62611 4.56297,4.87011 1.24794,2.244 2.56705,4.31231 4.91495,4.87732 2.34789,0.56501 5.6182,0.177 7.14707,-1.28038 10.39551,-9.90944 31.48264,-30.08895 31.48264,-30.08895 5.703,-4.883 4.023,-9.365 4.023,-9.365 l -7.852,-17.881 c 0,0 -2.148,-4.287 -9.57,-3.301 l -43.672,4.014 c -2.539,0.361 -4.805,2.051 -5.781,4.629 -0.586,1.504 -0.625,3.076 -0.195,4.502 l 1.563,5.029 c 0.313,1.045 0.313,2.217 -0.117,3.291 -0.508,1.328 -1.523,2.266 -2.734,2.764 l -12.344,5.225 c -14.22674,4.82612 -27.617,2.734 -37.422,-9.258 l -11.211,-14.893 -31.914,-42.354 c -15.156,-20.098 -38.00799,-34.434 -64.99999,-38.203 -54.043,-7.568 -104.199,29.854 -112.051,83.584 -3.965,27.08 -0.23964,49.98277 20.21927,73.38016 20.45892,23.39738 60.24695,32.31062 94.71373,40.20984 3.688,0.875 14.063,3.438 20.203,5.656 5.676,2.055 18.74999,6.875 29.37499,15.57 v 0 c 12.695,12.906 19.414,31.344 16.563,50.68 -4.805,32.969 -35.586,55.938 -68.74999,51.289 -16.611,-2.305 -30.635,-11.109 -39.922,-23.438 l -38.32,-50.859 c -7.813,-10.367 -19.629,-17.773 -33.594,-19.766 -13.945,-1.953 -27.441,1.914 -37.9,9.75 l -80.043417,59.73605 c 3.392949,9.65154 7.686724,19.24315 16.84366,27.03872 l 82.523757,-61.87477 c 3.779,-2.578 8.467,-3.75 13.33,-3.086 5.176,0.742 9.58,3.461 12.471,7.305 l 40.537,54.477 c 14.277,17.516 35.02,29.922 59.307,33.336 51.09399,7.148 98.51599,-28.242 105.93799,-79.063 3.436,-23.649 -2.345,-46.485 -14.728,-64.844"
         id="snake"
         style="fill:#ffffff;fill-opacity:1;stroke:none"
         sodipodi:nodetypes="czssccccczzzscccccccccccccccczccssccccccccccccccc"
         clip-path="url(#clipPath23113)" /></g><g
       id="g3"
       transform="matrix(0.11298588,0,0,0.11298588,10.702495,61.972481)"><path
         class="cls-1"
         d="m 290.85,199.21 c -10.27,0 -20.73,-4.25 -27.28,-12.58 v 45 H 243 V 120.54 h 18.6 l 0.71,12.22 c 6.38,-9.39 17.71,-14.35 28.52,-14.35 20.73,0 36,17.37 36,40.4 0,23.03 -15.25,40.41 -35.98,40.4 z m -6.37,-65.55 c -12.05,0 -21.79,9.39 -21.79,25.16 0,15.77 9.74,25.18 21.79,25.18 12.05,0 21.79,-9.39 21.79,-25.16 0,-15.77 -9.74,-25.18 -21.79,-25.18 z"
         id="path1-1" /><path
         class="cls-1"
         d="m 404.36,197.1 -0.71,-12.22 c -6.38,9.39 -17.72,14.35 -28.53,14.34 -20.73,0 -36,-17.36 -36,-40.39 0,-23.03 15.24,-40.4 36,-40.39 10.81,0 22.15,5 28.53,14.35 l 0.71,-12.22 H 423 v 76.53 z m -22.85,-63.43 c -12.05,0 -21.79,9.39 -21.8,25.16 -0.01,15.77 9.74,25.17 21.79,25.17 12.05,0 21.8,-9.39 21.8,-25.16 0,-15.77 -9.74,-25.17 -21.79,-25.17 z"
         id="path2-94" /><path
         class="cls-1"
         d="m 494.87,197.11 v -42.34 c 0,-14.88 -5.13,-19.84 -14.52,-19.84 -9.75,0 -20.38,8.85 -20.38,19.48 v 42.7 h -20.56 v -76.54 h 18.79 l 0.89,14.18 c 5.14,-9.75 16.65,-16.3 28.35,-16.3 20.37,0 28,14.18 28,33.13 v 45.54 z"
         id="path3-7" /><path
         class="cls-1"
         d="m 590.77,197.13 -0.71,-12.23 c -6.38,9.39 -17.72,14.35 -28.52,14.35 -20.73,0 -36,-17.37 -36,-40.4 0,-23.03 15.24,-40.39 36,-40.39 10.27,0 20.72,4.26 27.28,12.58 V 90.83 h 20.56 v 106.3 z M 567.92,133.7 c -12,0 -21.79,9.39 -21.79,25.15 0,15.76 9.74,25.15 21.79,25.15 12.05,0 21.79,-9.38 21.79,-25.15 0,-15.77 -9.71,-25.15 -21.79,-25.15 z"
         id="path4-8" /><path
         class="cls-1"
         d="m 686.6,197.14 -0.71,-12.22 c -6.38,9.39 -17.72,14.34 -28.53,14.34 -20.73,0 -36,-17.36 -36,-40.4 0,-23.04 15.24,-40.39 36,-40.39 10.81,0 22.15,5 28.53,14.36 l 0.71,-12.23 h 18.6 v 76.53 z m -22.85,-63.43 c -12,0 -21.79,9.39 -21.8,25.16 -0.01,15.77 9.75,25.13 21.79,25.13 12.04,0 21.8,-9.39 21.8,-25.16 0,-15.77 -9.74,-25.13 -21.79,-25.13 z"
         id="path5-4" /><path
         class="cls-1"
         d="m 750.73,199.63 a 60.16,60.16 0 0 1 -30.65,-8.69 l 3.37,-14.17 c 6.2,3.72 15.59,8.51 26.93,8.51 8.15,0 13.82,-2.48 13.82,-8.86 0,-5.49 -5.85,-7.44 -16.3,-9.92 -18.78,-4.08 -25.51,-14 -25.51,-24.81 0,-12.05 9.39,-23.38 30.12,-23.38 12.58,0 23.57,5.49 26,6.91 l -3.37,13.47 A 44.59,44.59 0 0 0 753,132.31 c -8.32,0 -12.4,2.83 -12.4,7.44 0,5.13 5.32,7.44 13.46,9.39 20.2,4.25 28.35,13.64 28.35,23.92 0.04,16.47 -12.01,26.57 -31.68,26.57 z"
         id="path6-5" /><rect
         class="cls-1"
         x="74.879997"
         y="68.419998"
         width="24.09"
         height="50.02"
         id="rect6" /><rect
         class="cls-1"
         x="74.879997"
         y="171.17"
         width="24.09"
         height="50.02"
         id="rect7" /><rect
         class="cls-2"
         x="74.879997"
         y="133.03999"
         width="24.09"
         height="23.6"
         id="rect8" /><rect
         class="cls-1"
         x="36.189999"
         y="109.55"
         width="24.09"
         height="166.27"
         id="rect9" /><rect
         class="cls-1"
         x="112.78"
         y="212.44"
         width="24.09"
         height="50.02"
         id="rect10" /><rect
         class="cls-1"
         x="112.78"
         y="109.61"
         width="24.09"
         height="50.02"
         id="rect11" /><rect
         class="cls-3"
         x="112.78"
         y="174.23"
         width="24.09"
         height="23.6"
         id="rect12" /><rect
         class="cls-1"
         x="150.67"
         y="55.389999"
         width="24.09"
         height="166.27"
         id="rect13" /></g><g
       id="Layer_1"
       data-name="Layer 1"
       transform="matrix(0.09435318,0,0,0.09435318,92.316346,149.07197)"><path
         class="cls-1"
         d="m 299.23,125 a 5.76,5.76 0 0 1 1.62,0.45 5.58,5.58 0 0 1 1.38,0.93 17,17 0 0 1 1.49,1.62 l 41.51,52.47 c -0.17,-1.67 -0.28,-3.31 -0.36,-4.88 -0.08,-1.57 -0.12,-3.07 -0.12,-4.47 v -46.29 h 17.87 v 87.38 h -10.56 a 9.68,9.68 0 0 1 -3.95,-0.72 8.47,8.47 0 0 1 -3.12,-2.64 l -41.21,-52 c 0.13,1.51 0.22,3 0.3,4.46 0.08,1.46 0.13,2.83 0.13,4.11 v 46.84 H 286.33 V 124.83 H 297 a 17.21,17.21 0 0 1 2.23,0.17 z"
         id="path1-0" /><path
         class="cls-1"
         d="m 392,150 v 39.46 q 0,4.62 2.1,7.14 a 7.62,7.62 0 0 0 6.18,2.52 13.26,13.26 0 0 0 5.73,-1.26 21.37,21.37 0 0 0 5.19,-3.54 V 150 h 18.59 v 62.19 h -11.51 a 4.39,4.39 0 0 1 -4.57,-3.12 l -1.13,-3.6 a 37.32,37.32 0 0 1 -3.72,3.16 23.32,23.32 0 0 1 -4.11,2.39 24.55,24.55 0 0 1 -4.75,1.58 25,25 0 0 1 -5.51,0.57 21.75,21.75 0 0 1 -9,-1.77 18.67,18.67 0 0 1 -6.63,-4.94 21.68,21.68 0 0 1 -4.08,-7.5 31,31 0 0 1 -1.38,-9.48 V 150 Z"
         id="path2-6" /><path
         class="cls-1"
         d="M 441.78,212.21 V 150 h 11.52 a 5.13,5.13 0 0 1 2.91,0.78 4.21,4.21 0 0 1 1.65,2.34 l 1,3.36 a 33.22,33.22 0 0 1 3.23,-3 20.83,20.83 0 0 1 3.63,-2.34 19.68,19.68 0 0 1 9.15,-2.13 14.6,14.6 0 0 1 9.33,2.91 18.14,18.14 0 0 1 5.6,7.76 18.71,18.71 0 0 1 3.81,-4.92 20.42,20.42 0 0 1 4.86,-3.29 23.69,23.69 0 0 1 5.51,-1.86 28.63,28.63 0 0 1 5.8,-0.6 26.3,26.3 0 0 1 9.47,1.59 18.05,18.05 0 0 1 6.93,4.62 20.15,20.15 0 0 1 4.23,7.44 32,32 0 0 1 1.44,10 v 39.52 h -18.6 v -39.49 q 0,-9.66 -8.27,-9.65 a 8.46,8.46 0 0 0 -6.27,2.49 q -2.49,2.47 -2.49,7.16 v 39.52 h -18.57 v -39.52 q 0,-5.34 -2.1,-7.5 c -1.4,-1.44 -3.46,-2.15 -6.18,-2.15 a 10.53,10.53 0 0 0 -4.77,1.13 17.72,17.72 0 0 0 -4.23,3.06 v 45 z"
         id="path3-1" /><path
         class="cls-1"
         d="m 562.93,183 v 29.21 h -20.27 v -87.38 h 30.82 a 50.86,50.86 0 0 1 15.87,2.17 30.49,30.49 0 0 1 10.91,6 23.36,23.36 0 0 1 6.33,9.06 30.63,30.63 0 0 1 2,11.27 33.11,33.11 0 0 1 -2.1,12 24.08,24.08 0 0 1 -6.42,9.36 30,30 0 0 1 -10.94,6.08 49.9,49.9 0 0 1 -15.65,2.23 z m 0,-15.29 h 10.55 c 5.28,0 9.08,-1.25 11.4,-3.78 2.32,-2.53 3.48,-6 3.48,-10.55 a 15.79,15.79 0 0 0 -0.9,-5.46 11.11,11.11 0 0 0 -2.73,-4.23 12.41,12.41 0 0 0 -4.62,-2.73 20.71,20.71 0 0 0 -6.63,-1 h -10.55 z"
         id="path4-5" /><path
         class="cls-1"
         d="m 644.61,228.35 a 6.69,6.69 0 0 1 -2,2.72 6.62,6.62 0 0 1 -3.84,0.87 h -13.95 l 12,-25.18 L 612,150 h 16.43 a 5.25,5.25 0 0 1 3.36,1 5.15,5.15 0 0 1 1.68,2.28 l 10.19,26.81 a 59,59 0 0 1 2.34,7.41 c 0.4,-1.28 0.84,-2.54 1.32,-3.77 0.48,-1.23 0.94,-2.5 1.38,-3.78 l 9.24,-26.69 a 4.5,4.5 0 0 1 1.89,-2.31 5.4,5.4 0 0 1 3,-0.93 h 15 z"
         id="path5-5" /><polygon
         class="cls-2"
         points="54.49,98 92.63,117.15 132.38,96.4 95.25,77.66 "
         id="polygon5" /><polygon
         class="cls-2"
         points="147.95,144.93 109.75,125.75 149.41,104.99 188.34,124.65 "
         id="polygon6" /><polygon
         class="cls-2"
         points="205.63,115.96 166.62,96.28 201.41,77.94 241.41,98 "
         id="polygon7" /><polygon
         class="cls-2"
         points="112.56,69.02 149.67,87.73 184.19,69.3 148.18,51.24 "
         id="polygon8" /><polygon
         class="cls-2"
         points="199.66,251.73 199.62,202.57 156.04,224.36 156.04,273.5 "
         id="polygon9" /><polygon
         class="cls-2"
         points="156.04,158.4 156.04,207.06 199.6,185.41 199.55,136.77 "
         id="polygon10" /><polygon
         class="cls-2"
         points="214.76,244.19 214.73,195.09 251.97,176.3 251.97,225.63 "
         id="polygon11" /><polygon
         class="cls-2"
         points="214.69,129.24 214.72,177.98 251.97,159.05 251.97,110.71 "
         id="polygon12" /><path
         class="cls-1"
         d="m 140.64,158.4 -29.38,-14.78 v 63.84 c 0,0 -35.94,-76.46 -39.26,-83.33 -0.43,-0.89 -2.19,-1.86 -2.64,-2.1 C 62.88,118.65 44,109.09 44,109.09 v 112.83 l 26.12,14 v -59 c 0,0 35.55,68.32 35.92,69.07 0.37,0.75 3.92,7.94 7.74,10.47 5.07,3.37 26.84,16.46 26.84,16.46 z"
         id="path12" /></g><g
       id="g4"
       transform="matrix(1.2081859,0,0,1.2081859,218.4167,123.07772)"><g
         inkscape:label="Ebene 1"
         id="layer1-3"
         style="display:inline"><path
           d="M 15.849679,0 8.371582,4.2509033 c 0.034266,0.1973343 0.9704596,5.5677088 1.974557,8.4775187 0.42793,0.295774 1.007634,0.532191 1.245402,0.898653 0.900881,2.448508 0.683162,4.745447 0.683162,4.745447 l -0.860929,0.350366 c 0,0 -1.5547486,-0.976251 -2.8587406,-4.066935 -0.023972,-0.354792 0.3311444,-1.085437 0.3762044,-1.39268 C 7.9582925,10.800269 6.2423028,5.6362857 6.1934204,5.4890706 L 1.8479492,7.9592041 1.8732707,23.834204 7.4641439,26.98905 C 7.4556791,26.965703 4.8767167,19.851926 4.0152588,16.17369 3.8855018,15.619656 3.7789125,14.942096 3.7527425,14.445113 c 0.204513,0.256782 0.4070674,0.586658 0.5296834,0.90072 3.3008706,8.454672 6.0368011,13.244213 6.0456261,13.259656 L 15.900321,31.75 29.902051,23.790796 29.876729,7.9157959 Z"
           style="fill:#164a8d"
           id="path7-6" /></g><g
         id="layer2"
         inkscape:label="Waben"
         style="display:inline"><path
           id="path6304"
           style="mix-blend-mode:normal;fill:url(#linearGradient26951);fill-opacity:1;fill-rule:evenodd;stroke:none;stroke-width:0.264571;stroke-linecap:butt;stroke-linejoin:miter;stroke-miterlimit:4;stroke-dasharray:none;stroke-opacity:1"
           d="m 15.851432,0.52916666 0.01188,7.40833324 6.730242,3.7982181 c 2.107274,-1.215045 4.463447,-2.4810101 6.659453,-3.6426719 z M 29.410093,8.2749471 c -2.100762,1.2475538 -4.377865,2.5941479 -6.532856,3.8204389 l 0.01137,7.557678 c 2.188472,1.160717 4.513539,2.413538 6.545775,3.59978 z M 22.77441,19.89801 15.889152,23.8125 15.901036,31.220833 29.21529,23.651786 C 27.120465,22.468705 24.875553,21.14468 22.774409,19.89801 Z" /><path
           id="path31-3"
           style="fill:#ffffff;fill-opacity:1;stroke-width:0.91364"
           d="m 59.90625,2 v 115.89453 l 0.1875,0.10547 0.8125,-0.46094 V 2.5644531 Z"
           transform="scale(0.26458333)" /></g><g
         id="layer3"
         inkscape:label="stars"
         style="display:inline"><path
           id="rect29367-5"
           style="fill:#ffffff;stroke-width:0.0283417"
           d="m 18.203333,19.84375 c 1e-6,0.132292 0.132292,0.264583 0.264584,0.264584 -0.184792,0.01808 -0.264583,0.132291 -0.264584,0.264583 1e-6,-0.132292 -0.132291,-0.264584 -0.264583,-0.264583 0.132292,-1e-6 0.264584,-0.132292 0.264583,-0.264584 z"
           sodipodi:nodetypes="ccccc"
           inkscape:transform-center-x="0.26890272"
           inkscape:transform-center-y="0.11876526" /><path
           id="rect29367-6"
           style="fill:#ffffff;stroke-width:0.085025"
           d="m 20.690417,17.4625 c 1e-6,0.396875 0.396876,0.79375 0.79375,0.793751 -0.554376,0.05426 -0.793749,0.396874 -0.79375,0.793749 1e-6,-0.396875 -0.396875,-0.79375 -0.79375,-0.793749 0.396875,-10e-7 0.793751,-0.396876 0.79375,-0.793751 z"
           sodipodi:nodetypes="ccccc"
           inkscape:transform-center-x="0.80670822"
           inkscape:transform-center-y="0.35629571" /><path
           id="rect29367-2"
           style="fill:#ffffff;stroke-width:0.0850253"
           d="m 18.732499,10.900833 c 2e-6,0.396875 0.396876,0.79375 0.793751,0.793751 -0.554377,0.05425 -0.793749,0.396873 -0.793751,0.793749 2e-6,-0.396876 -0.396874,-0.79375 -0.793749,-0.793749 0.396875,-1e-6 0.793751,-0.396876 0.793749,-0.793751 z"
           sodipodi:nodetypes="ccccc"
           inkscape:transform-center-x="0.80670818"
           inkscape:transform-center-y="0.35629574" /><path
           id="rect29367-9"
           style="fill:#ffffff;stroke-width:0.0566833"
           d="m 21.431249,14.022917 c 10e-7,0.264584 0.264584,0.529167 0.529167,0.529167 -0.369584,0.03617 -0.529166,0.264583 -0.529167,0.529166 10e-7,-0.264583 -0.264582,-0.529166 -0.529166,-0.529166 0.264584,0 0.529167,-0.264583 0.529166,-0.529167 z"
           sodipodi:nodetypes="ccccc"
           inkscape:transform-center-x="0.53780531"
           inkscape:transform-center-y="0.2375304" /><path
           id="rect29367-1"
           style="fill:#ffffff;stroke-width:0.0566833"
           d="m 17.515416,15.345833 c 1e-6,0.264583 0.264584,0.529167 0.529167,0.529167 -0.369584,0.03617 -0.529166,0.264583 -0.529167,0.529166 1e-6,-0.264583 -0.264583,-0.529167 -0.529166,-0.529166 0.264583,-10e-7 0.529167,-0.264584 0.529166,-0.529167 z"
           sodipodi:nodetypes="ccccc"
           inkscape:transform-center-x="0.53780531"
           inkscape:transform-center-y="0.2375304" /></g><g
         id="layer4"
         inkscape:label="snake"
         style="display:inline"><path
           d="m 10.328052,28.605489 c -0.0088,-0.01544 -2.7447555,-4.804984 -6.0456261,-13.259656 -0.122616,-0.314062 -0.3251704,-0.643938 -0.5296834,-0.90072 0.02617,0.496983 0.1327593,1.174543 0.2625163,1.728577 0.8614579,3.678236 3.4404203,10.792013 3.4488851,10.81536 z"
           style="opacity:1;fill:#ffffff;fill-rule:evenodd;stroke-width:0.264583px"
           id="path9-7" /><path
           style="fill:#ffffff;fill-opacity:1;fill-rule:evenodd;stroke:none;stroke-width:0.264583px;stroke-linecap:butt;stroke-linejoin:miter;stroke-opacity:1"
           d="m 11.757263,18.65429 0.408377,0.753683 c 0,0 -0.120919,0.567553 -0.07568,0.678 0.05943,-0.04723 0.149981,-0.411653 0.188434,-0.562898 0.06711,0.0217 0.474741,0.339504 0.580991,0.332719 -0.0421,-0.111453 -0.522838,-0.464805 -0.522838,-0.464805 l -0.286069,-0.869071 z"
           id="path39696"
           sodipodi:nodetypes="cccccccc" /><path
           d="m 6.1934204,5.4890706 c 0.048882,0.1472151 1.7648721,5.3111984 2.7378174,7.7742024 -0.04506,0.307243 -0.4001764,1.037888 -0.3762044,1.39268 1.303992,3.090684 2.8587406,4.066935 2.8587406,4.066935 l 0.860929,-0.350366 c 0,0 0.217719,-2.296939 -0.683162,-4.745447 C 11.353773,13.260613 10.774069,13.024196 10.346139,12.728422 9.3420421,9.8186121 8.4058485,4.4482376 8.371582,4.2509033 Z"
           style="fill:#ffffff;stroke-width:0.25007"
           id="path5-53" /><path
           id="path36526"
           style="fill:#164a8d;fill-opacity:1;stroke:#ffffff;stroke-width:0.132292;stroke-opacity:1"
           d="m 11.636446,15.006714 c 0.241822,-0.07608 0.499529,0.05832 0.575615,0.3001 0.07608,0.241823 -0.05832,0.499532 -0.300101,0.575615 -0.264392,-0.15387 -0.361909,-0.519301 -0.275514,-0.875715 z"
           sodipodi:nodetypes="cscc" /><path
           id="path36526-0"
           style="fill:#164a8d;fill-opacity:1;stroke:#ffffff;stroke-width:0.132292;stroke-opacity:1"
           d="m 9.843279,16.574036 c -0.220685,0.124754 -0.500727,0.04695 -0.625477,-0.173699 -0.124755,-0.220688 -0.04694,-0.500729 0.173701,-0.625478 0.29063,0.09546 0.462083,0.432586 0.451776,0.799177 z"
           sodipodi:nodetypes="cscc" /></g></g><g
       id="g3649"
       inkscape:label="sunpy_compact"
       transform="matrix(0.09198802,0,0,-0.09198802,233.77339,81.257745)"><g
   id="g3651"><g
     id="g3653"
     clip-path="url(#clipPath3655)"><path
       d="M 187.985,707.823 H 510.492 V 384.592 H 187.985 Z"
       style="fill:#fed20b;fill-opacity:1;fill-rule:nonzero;stroke:none"
       id="path3659"
       inkscape:connector-curvature="0" /><g
       id="g3661"
       transform="translate(327.1396,704.3284)"
       style="fill:#fe7900;fill-opacity:1"><path
         d="m 0,0 c -9.553,-3.648 -19.087,-7.78 -28.655,-12.289 -2.72,-1.282 -5.449,-2.713 -8.172,-4.081 L 21.538,-61.2 Z"
         style="fill:#fe7900;fill-opacity:1;fill-rule:nonzero;stroke:none"
         id="path3663"
         inkscape:connector-curvature="0" /></g><g
       id="g3665"
       transform="translate(215.4777,602.6791)"
       style="fill:#fe7900;fill-opacity:1"><path
         d="m 0,0 c -5.635,-9.133 -10.665,-18.522 -14.88,-28.04 l 57.934,0.197 z"
         style="fill:#fe7900;fill-opacity:1;fill-rule:nonzero;stroke:none"
         id="path3667"
         inkscape:connector-curvature="0" /></g><g
       id="g3669"
       transform="translate(205.4881,474.8035)"
       style="fill:#fe7900;fill-opacity:1"><path
         d="M 0,0 C 5.993,-10.568 12.857,-20.9 20.715,-30.971 L 55.964,26.64 Z"
         style="fill:#fe7900;fill-opacity:1;fill-rule:nonzero;stroke:none"
         id="path3671"
         inkscape:connector-curvature="0" /></g><g
       id="g3673"
       transform="translate(364.7315,386.0267)"
       style="fill:#fe7900;fill-opacity:1"><path
         d="M 0,0 C 13.22,1.416 25.855,3.492 37.911,6.229 L 8.811,66.982 Z"
         style="fill:#fe7900;fill-opacity:1;fill-rule:nonzero;stroke:none"
         id="path3675"
         inkscape:connector-curvature="0" /></g><g
       id="g3677"
       transform="translate(452.985,487.9121)"
       style="fill:#fe7900;fill-opacity:1"><path
         d="m 0,0 c 8.737,5.733 17.177,12.122 25.188,19.224 l -45.303,32.51 z"
         style="fill:#fe7900;fill-opacity:1;fill-rule:nonzero;stroke:none"
         id="path3679"
         inkscape:connector-curvature="0" /></g><g
       id="g3681"
       transform="translate(501.489,616.3011)"
       style="fill:#fe7900;fill-opacity:1"><path
         d="m 0,0 c -0.132,0.791 -0.235,1.594 -0.378,2.383 -1.542,3.796 -2.593,7.726 -3.148,11.786 -1.381,5.49 -3.228,10.851 -5.458,16.115 L -56.536,5.516 Z"
         style="fill:#fe7900;fill-opacity:1;fill-rule:nonzero;stroke:none"
         id="path3683"
         inkscape:connector-curvature="0" /></g><g
       id="g3685"
       transform="translate(455.5196,673.7922)"
       style="fill:#fe7900;fill-opacity:1"><path
         d="m 0,0 c -1.562,0.972 -3.079,1.957 -4.675,2.924 -3.942,3.097 -11.824,5.141 -13.188,8.93 -3.753,2.172 -7.512,4.343 -11.275,6.517 l -3.399,-62.855 z"
         style="fill:#fe7900;fill-opacity:1;fill-rule:nonzero;stroke:none"
         id="path3687"
         inkscape:connector-curvature="0" /></g><g
       id="g3689"
       transform="translate(272.2613,662.0034)"
       style="fill:#fe7900;fill-opacity:1"><path
         d="m 0,0 c -8.58,-6.955 -16.823,-14.162 -24.535,-21.569 -0.382,-0.373 -0.77,-0.771 -1.152,-1.142 l 54.326,-28.547 z"
         style="fill:#fe7900;fill-opacity:1;fill-rule:nonzero;stroke:none"
         id="path3691"
         inkscape:connector-curvature="0" /></g><g
       id="g3693"
       transform="translate(195.1753,544.2224)"
       style="fill:#fe7900;fill-opacity:1"><path
         d="M 0,0 C -0.281,-10.322 0.282,-20.458 1.593,-30.44 L 51.396,-7.862 Z"
         style="fill:#fe7900;fill-opacity:1;fill-rule:nonzero;stroke:none"
         id="path3695"
         inkscape:connector-curvature="0" /></g><g
       id="g3697"
       transform="translate(261.4511,414.3745)"
       style="fill:#fe7900;fill-opacity:1"><path
         d="M 0,0 C 10.769,-6.08 22.118,-11.893 34.122,-17.414 L 49.975,46.608 Z"
         style="fill:#fe7900;fill-opacity:1;fill-rule:nonzero;stroke:none"
         id="path3699"
         inkscape:connector-curvature="0" /></g><g
       id="g3701"
       transform="translate(456.5343,583.2733)"
       style="fill:#fe7900;fill-opacity:1"><path
         d="m 0,0 44.44,-29.174 c 3.98,9.578 7.059,19.27 9.327,28.987 z"
         style="fill:#fe7900;fill-opacity:1;fill-rule:nonzero;stroke:none"
         id="path3703"
         inkscape:connector-curvature="0" /></g><g
       id="g3705"
       transform="translate(406.6292,698.5815)"><path
         d="m 0,0 c -10.555,2.597 -20.868,4.287 -30.975,5.154 l 7.306,-54.79 z"
         style="fill:#fe7900;fill-opacity:1;fill-rule:nonzero;stroke:none"
         id="path3707"
         inkscape:connector-curvature="0" /></g><g
       id="g3709"
       transform="translate(397.3771,474.7584)"
       style="fill:#fe7900;fill-opacity:1"><path
         d="M 0,0 C 9.318,1.577 18.629,3.823 27.835,6.807 L 2.067,50.166 Z"
         style="fill:#fe7900;fill-opacity:1;fill-rule:nonzero;stroke:none"
         id="path3711"
         inkscape:connector-curvature="0" /></g><g
       id="g3713"
       transform="translate(306.8412,501.8764)"
       style="fill:#fe7900;fill-opacity:1"><path
         d="m 0,0 c 8.572,-8.786 17.842,-17.069 27.826,-24.697 l 27.271,59.53 z"
         style="fill:#fe7900;fill-opacity:1;fill-rule:nonzero;stroke:none"
         id="path3715"
         inkscape:connector-curvature="0" /></g></g></g><g
   id="g3717"><g
     id="g3719"
     clip-path="url(#clipPath3721)"><g
   id="g3725"
   transform="translate(610.4482,581.2419)"><path
     d="m 0,0 c 17.995,1.885 44.48,6.925 43.697,-12.193 v -6.605 c -1.289,-12.557 -14.481,-14.146 -25.91,-17.276 -21.749,-5.97 -47.764,-11.584 -71.139,-13.211 h -5.078 c -10.373,2.246 -27.586,7.749 -26.934,19.814 0.446,8.153 12.684,13.063 21.849,16.263 C -44.186,-6.454 -21.956,-2.286 0,0"
     style="fill:#fed20b;fill-opacity:1;fill-rule:nonzero;stroke:none"
     id="path3727"
     inkscape:connector-curvature="0" /></g><g
   id="g3729"
   transform="translate(630.0081,405.9229)"><path
     d="m 0,0 c 5.865,-6.796 1.188,-26.573 -7.111,-28.451 -5.293,-1.209 -12.47,2.516 -16.765,4.57 -25.089,11.939 -44.653,23.121 -68.594,38.109 -7.622,4.763 -20.918,10.988 -22.362,19.814 -1.693,10.353 5.508,19.735 14.739,20.833 10.054,1.208 23.286,-3.766 30.995,-7.622 9.124,-4.573 16.683,-9.994 23.371,-14.736 C -28.62,20.384 -14.562,11.219 -1.014,1.016 -0.508,0.636 -0.403,0.466 0,0"
     style="fill:#fed20b;fill-opacity:1;fill-rule:nonzero;stroke:none"
     id="path3731"
     inkscape:connector-curvature="0" /></g><g
   id="g3733"
   transform="translate(572.9283,741.454)"><path
     d="M 0,0 C 9.866,0.065 19.692,-9.316 18.294,-19.816 17.506,-25.68 10.542,-31.46 5.082,-36.583 -11.494,-52.122 -32.075,-69.968 -56.398,-74.691 h -6.098 c -7.813,1.652 -14.841,4.784 -15.749,12.195 -1.123,9.085 9.631,17.215 14.229,21.34 12.721,11.432 26.507,19.457 41.154,28.962 C -16.365,-7.961 -8.382,-0.043 0,0"
     style="fill:#fed20b;fill-opacity:1;fill-rule:nonzero;stroke:none"
     id="path3735"
     inkscape:connector-curvature="0" /></g><g
   id="g3737"
   transform="translate(516.9543,301.4407)"><path
     d="m 0,0 c 2.373,-5.274 5.737,-11.666 5.588,-16.26 -0.296,-8.958 -10.012,-17.278 -19.812,-16.766 -8.027,0.423 -10.567,5.545 -16.261,10.158 -1.82,2.246 -3.857,4.274 -6.098,6.101 -20.452,21.89 -36.376,48.311 -45.221,81.802 v 6.606 c 0.399,6.753 7.792,15.138 15.244,16.261 12.868,1.925 22.355,-8.109 28.451,-15.745 C -22.061,52.057 -11.263,25.064 0,0"
     style="fill:#fed20b;fill-opacity:1;fill-rule:nonzero;stroke:none"
     id="path3739"
     inkscape:connector-curvature="0" /></g><g
   id="g3741"
   transform="translate(402.6306,852.3464)"><path
     d="m 0,0 c 12.173,-2.394 18.295,-10.84 17.277,-26.421 -1.164,-0.699 -0.189,-3.536 -0.508,-5.082 -1.859,-23.521 -5.039,-58.749 -14.226,-78.756 -3.452,-7.515 -10.102,-17.32 -21.849,-15.243 -9.696,1.713 -12.999,12.022 -13.716,23.88 v 14.735 c 0.231,15.625 2.984,35.821 7.114,50.811 4.148,15.009 8.468,31.079 21.333,36.076 z"
     style="fill:#fed20b;fill-opacity:1;fill-rule:nonzero;stroke:none"
     id="path3743"
     inkscape:connector-curvature="0" /></g><g
   id="g3745"
   transform="translate(378.7538,305.3443)"><path
     d="M 0,0 C -1.169,-1.209 -0.195,-4.554 -0.51,-6.608 -2.818,-28.86 -4.214,-52.019 -20.326,-60.467 h -4.575 c -12.766,6.88 -13.929,25.366 -15.747,43.19 -0.339,2.709 0.678,6.774 -0.51,8.638 v 4.065 c 1.188,2.541 0.171,7.282 0.51,10.668 0.678,11.75 1.164,21.996 3.556,33.537 1.717,8.301 4.872,23.078 13.211,23.882 C -13.002,64.572 -6.796,49.394 -4.069,39.631 -0.531,27.013 -0.149,14.438 0,0"
     style="fill:#fed20b;fill-opacity:1;fill-rule:nonzero;stroke:none"
     id="path3747"
     inkscape:connector-curvature="0" /></g><g
   id="g3749"
   transform="translate(273.5722,372.921)"><path
     d="m 0,0 v -9.148 c -4.677,-28.005 -18.969,-57.605 -37.599,-77.225 -5.25,-5.549 -14.607,-16.472 -24.897,-12.197 -3.514,1.457 -4.616,5.761 -5.588,10.675 v 6.096 c 4.954,34 19.032,58.875 36.075,80.787 2.414,1.986 4.614,4.19 6.605,6.6 C -19.138,13.995 0.425,15.052 0,0"
     style="fill:#fed20b;fill-opacity:1;fill-rule:nonzero;stroke:none"
     id="path3751"
     inkscape:connector-curvature="0" /></g><g
   id="g3753"
   transform="translate(275.0622,734.7545)"><path
     d="m 0,0 c 2.311,-9.547 7.24,-24.686 -4.572,-26.931 h -5.083 c -6.689,0.595 -9.547,5.02 -13.719,8.131 -2.329,2.752 -4.869,5.292 -7.621,7.622 C -51.678,7.876 -75.264,52.888 -55.383,90.445 -45.011,88.92 -38.914,79.328 -33.03,71.136 -18.82,51.318 -6.858,28.37 0,0"
     style="fill:#fed20b;fill-opacity:1;fill-rule:nonzero;stroke:none"
     id="path3755"
     inkscape:connector-curvature="0" /></g><g
   id="g3757"
   transform="translate(205.7032,648.3133)"><path
     d="m 0,0 c 2.138,-9.843 -4.319,-16.091 -12.702,-16.766 -15.708,-1.272 -34.023,9.421 -44.714,15.75 -13.655,8.087 -25.066,16.555 -35.058,25.406 -1.82,2.244 -3.855,4.275 -6.098,6.095 -5.631,8.11 -15.521,14.629 -13.718,28.455 12.51,2.267 24.473,-2.689 35.059,-6.605 20.599,-7.601 39.209,-16.747 56.91,-29.471 C -12.322,17.127 -2.137,9.911 0,0"
     style="fill:#fed20b;fill-opacity:1;fill-rule:nonzero;stroke:none"
     id="path3759"
     inkscape:connector-curvature="0" /></g><g
   id="g3761"
   transform="translate(182.622,442.5301)"><path
     d="m 0,0 c 1.628,-8.086 -5.693,-16.999 -10.162,-21.848 -10.16,-11.008 -23.563,-19.386 -37.092,-25.911 -8.044,-3.894 -36.137,-12.811 -38.109,1.522 -1.162,8.387 6.226,11.687 9.147,17.278 1.907,1.484 3.599,3.175 5.082,5.078 9.167,7.35 18.016,14.799 29.978,21.34 C -35.483,0.551 -3.261,16.238 0,0"
     style="fill:#fed20b;fill-opacity:1;fill-rule:nonzero;stroke:none"
     id="path3763"
     inkscape:connector-curvature="0" /></g><g
   id="g3765"
   transform="translate(168.9019,552.2807)"><path
     d="m 0,0 c 1.102,-18.883 -31.988,-21.381 -49.792,-22.864 h -18.292 c -22.674,2.392 -46.366,3.769 -55.385,19.818 v 3.555 c 6.245,16.958 27.375,19.034 48.27,21.34 2.056,0.319 5.401,-0.657 6.608,0.509 h 7.622 c 1.376,-1.167 4.89,-0.19 7.11,-0.509 11.793,-0.998 22.21,-1.629 33.027,-5.081 C -12.703,14.185 -0.549,9.253 0,0"
     style="fill:#fed20b;fill-opacity:1;fill-rule:nonzero;stroke:none"
     id="path3767"
     inkscape:connector-curvature="0" /></g><g
   id="g3769"
   transform="translate(405.4024,556.9478)"><path
     d="m 0,0 c 4.62,0.271 7.951,1.182 12.528,-0.867 2.131,-0.954 4.285,-0.954 6.559,-0.729 4.941,0.484 8.494,3.348 12.329,6.164 1.547,1.139 -1.37,1.27 -1.897,1.218 C 27.602,5.604 25.597,5.011 24.036,3.864 22.111,2.451 21.573,1.28 18.752,2.543 17.411,3.145 16.002,3.858 14.521,3.972 10.807,4.257 7.273,3.355 3.587,3.14 1.529,3.021 -5.391,-0.317 0,0"
     style="fill:#fed20b;fill-opacity:1;fill-rule:nonzero;stroke:none"
     id="path3771"
     inkscape:connector-curvature="0" /></g><g
   id="g3773"
   transform="translate(422.4237,555.8321)"><path
     d="m 0,0 c 2.585,-3.287 6.268,-5.474 10.511,-5.271 1.765,0.084 4.13,0.723 5.481,1.935 1.405,1.267 -1.255,1.306 -1.917,1.273 1.122,0.054 -0.263,0.172 -0.603,0.306 -0.71,0.278 -1.372,0.682 -2.016,1.086 C 10.251,0.086 9.059,1.066 8.178,2.191 7.301,3.309 4.881,2.613 3.763,2.316 3.457,2.233 -0.687,0.873 0,0"
     style="fill:#fed20b;fill-opacity:1;fill-rule:nonzero;stroke:none"
     id="path3775"
     inkscape:connector-curvature="0" /></g><text
   transform="matrix(1,0,0,-1,50.895,89.1035)"
   style="font-variant:normal;font-weight:bold;font-stretch:normal;font-size:230px;line-height:0%;font-family:'Source Sans Pro';-inkscape-font-specification:SourceSansPro-Bold;writing-mode:lr-tb;fill:#fe7900;fill-opacity:1;fill-rule:nonzero;stroke:none"
   id="text3777">sun</text>
</g></g><text
   transform="matrix(1,0,0,-1,414.9795,89.1035)"
   style="font-variant:normal;font-weight:normal;font-stretch:normal;font-size:230px;line-height:0%;font-family:'Source Sans Pro';-inkscape-font-specification:SourceSansPro-Regular;writing-mode:lr-tb;fill:#444444;fill-opacity:1;fill-rule:nonzero;stroke:none"
   id="text3781">py</text>
</g></g></svg>
